<svg xmlns="http://www.w3.org/2000/svg" width="200" height="190.91" viewBox="0 0 200 190.91"><path d="M4.273,168.91c-5.149,0-9.391-3.614-10.556-8.994L-23,48.867v-.618A10.756,10.756,0,0,1-12.256,37.505H28.867L60.149-19.846a4.132,4.132,0,0,1,5.607-1.649A4.132,4.132,0,0,1,67.4-15.889L38.281,37.505h77.439L86.6-15.889a4.132,4.132,0,0,1,1.649-5.606,4.132,4.132,0,0,1,5.606,1.649l31.283,57.351h41.123A10.755,10.755,0,0,1,177,48.249v.618l-16.62,110.528c-1.012,5.772-5.28,9.515-10.652,9.515Zm145.455-8.264c1.369,0,2.2-.89,2.479-2.479L164.261,78h-30.7l-12.714,82.645Zm-37.19,0a4.165,4.165,0,0,1,.049-.629L125.2,78H81.133v82.645Zm-39.669,0V78H28.8l12.618,82.016a4.168,4.168,0,0,1,.049.629ZM1.793,158.166c.292,1.349,1.11,2.479,2.479,2.479H33.15L20.435,78h-30.7ZM165.5,69.736l3.231-21.488a2.479,2.479,0,0,0-2.479-2.479H129.641l3.879,7.112a4.132,4.132,0,1,1-7.256,3.957L120.227,45.77H33.773L27.735,56.839a4.132,4.132,0,0,1-7.255-3.957l3.879-7.112H-12.256a2.479,2.479,0,0,0-2.479,2.479L-11.5,69.736Z" transform="translate(23 22)"/></svg>